<?xml version="1.0" encoding="utf-8"?>
<!-- Generator: Adobe Illustrator 16.2.1, SVG Export Plug-In . SVG Version: 6.00 Build 0)  -->
<!DOCTYPE svg PUBLIC "-//W3C//DTD SVG 1.1//EN" "http://www.w3.org/Graphics/SVG/1.1/DTD/svg11.dtd">
<svg version="1.1" id="Layer_1" xmlns="http://www.w3.org/2000/svg" xmlns:xlink="http://www.w3.org/1999/xlink" x="0px" y="0px"
	 width="200px" height="200px" viewBox="0 0 200 200" enable-background="new 0 0 200 200" xml:space="preserve">
<path d="M60.449,4.016c3.682,5.956,7.225,11.725,10.814,17.493c4.538,7.328,9.085,14.631,13.577,21.984
	c3.996,6.53,7.909,13.175,11.938,19.691c4.395,7.091,8.91,14.094,13.387,21.172c2.941,4.632,5.939,9.225,8.789,13.909
	c0.37,0.626,0.276,2.012-0.131,2.67c-4.632,7.482-9.371,14.887-14.069,22.324c-5.09,8.049-10.176,16.125-15.243,24.201
	c-5.079,8.075-10.125,16.2-15.203,24.303c-4.481,7.13-8.982,14.234-13.47,21.363c-0.287,0.46-0.476,0.996-0.837,1.865
	c3.372,1.407,6.624,2.94,9.986,4.065c0.5,0.203,1.628-1.15,2.178-1.994c4.802-7.54,9.598-15.052,14.275-22.694
	c4.492-7.154,8.831-14.438,13.309-21.67c4.421-7.08,8.974-14.033,13.376-21.109c3.425-5.418,6.68-10.965,10.065-16.381
	c2.563-4.164,5.283-8.196,7.92-12.3c0.981-1.52,1.424-2.995,0.294-4.74c-4.521-7.034-9-14.075-13.431-21.153
	c-3.839-6.165-7.513-12.433-11.379-18.591c-4.387-7.054-8.892-13.909-13.332-20.872c-2.521-3.948-5.014-7.904-7.437-11.935
	c-3.654-6.069-7.226-12.209-10.847-18.343c-0.625-1.073-1.268-2.185-1.901-3.245c-2.151-3.546-2.151-3.584-5.819-2.435
	C64.963,2.343,62.756,3.192,60.449,4.016z"/>
</svg>
