<?xml version="1.0" encoding="utf-8"?>
<!-- Generator: Adobe Illustrator 16.2.1, SVG Export Plug-In . SVG Version: 6.00 Build 0)  -->
<!DOCTYPE svg PUBLIC "-//W3C//DTD SVG 1.1//EN" "http://www.w3.org/Graphics/SVG/1.1/DTD/svg11.dtd">
<svg version="1.1" id="Layer_1" xmlns="http://www.w3.org/2000/svg" xmlns:xlink="http://www.w3.org/1999/xlink" x="0px" y="0px"
	 width="200px" height="200px" viewBox="0 0 200 200" enable-background="new 0 0 200 200" xml:space="preserve">
<path d="M124.813,1.594c-3.668-1.149-3.668-1.111-5.819,2.435c-0.633,1.06-1.276,2.172-1.901,3.245
	c-3.621,6.134-7.192,12.274-10.847,18.343c-2.423,4.031-4.915,7.986-7.437,11.935c-4.44,6.963-8.945,13.818-13.332,20.872
	c-3.866,6.158-7.54,12.426-11.379,18.591c-4.431,7.079-8.909,14.12-13.431,21.153c-1.13,1.745-0.688,3.22,0.294,4.74
	c2.637,4.104,5.356,8.136,7.92,12.3c3.386,5.416,6.641,10.963,10.065,16.381c4.402,7.076,8.955,14.029,13.376,21.109
	c4.479,7.231,8.816,14.516,13.309,21.67c4.677,7.643,9.473,15.154,14.275,22.694c0.55,0.844,1.678,2.197,2.178,1.994
	c3.363-1.125,6.614-2.658,9.986-4.065c-0.361-0.869-0.551-1.405-0.837-1.865c-4.487-7.129-8.988-14.233-13.47-21.363
	c-5.078-8.103-10.125-16.228-15.203-24.303c-5.067-8.076-10.153-16.152-15.243-24.201c-4.698-7.438-9.438-14.842-14.069-22.324
	c-0.407-0.658-0.501-2.043-0.131-2.67c2.85-4.684,5.848-9.277,8.789-13.909c4.477-7.079,8.992-14.081,13.387-21.172
	c4.029-6.516,7.941-13.161,11.938-19.691c4.491-7.354,9.039-14.656,13.576-21.984c3.59-5.768,7.133-11.537,10.814-17.493
	C129.315,3.192,127.108,2.343,124.813,1.594z"/>
</svg>
