<?xml version="1.0" encoding="utf-8"?>
<!-- Generator: Adobe Illustrator 16.2.1, SVG Export Plug-In . SVG Version: 6.00 Build 0)  -->
<!DOCTYPE svg PUBLIC "-//W3C//DTD SVG 1.1//EN" "http://www.w3.org/Graphics/SVG/1.1/DTD/svg11.dtd">
<svg version="1.1" id="Layer_1" xmlns="http://www.w3.org/2000/svg" xmlns:xlink="http://www.w3.org/1999/xlink" x="0px" y="0px"
	 width="336px" height="30.333px" viewBox="0 0 336 30.333" enable-background="new 0 0 336 30.333" xml:space="preserve">
<path fill="#FFFFFF" d="M164.49,7.834c0.389,0.455,0.763,0.896,1.142,1.337c0.479,0.56,0.959,1.118,1.433,1.68
	c0.422,0.499,0.835,1.007,1.26,1.505c0.464,0.542,0.941,1.077,1.414,1.618c0.31,0.354,0.626,0.705,0.927,1.063
	c0.039,0.048,0.029,0.154-0.013,0.204c-0.49,0.572-0.99,1.138-1.486,1.707c-0.537,0.615-1.074,1.231-1.609,1.849
	c-0.536,0.618-1.069,1.239-1.605,1.858c-0.473,0.544-0.948,1.088-1.422,1.632c-0.03,0.036-0.05,0.077-0.088,0.143
	c0.356,0.108,0.699,0.225,1.054,0.311c0.053,0.015,0.172-0.089,0.23-0.153c0.507-0.576,1.013-1.151,1.507-1.734
	c0.474-0.547,0.932-1.104,1.405-1.657c0.466-0.541,0.947-1.071,1.412-1.612c0.361-0.415,0.705-0.838,1.062-1.253
	c0.271-0.319,0.558-0.627,0.836-0.94c0.103-0.116,0.151-0.229,0.031-0.362c-0.477-0.538-0.95-1.076-1.417-1.617
	c-0.406-0.471-0.794-0.95-1.201-1.421c-0.464-0.539-0.939-1.063-1.408-1.595c-0.266-0.302-0.529-0.604-0.785-0.912
	c-0.386-0.464-0.763-0.933-1.145-1.402c-0.066-0.082-0.134-0.167-0.201-0.248c-0.227-0.271-0.227-0.274-0.614-0.186
	C164.967,7.706,164.734,7.771,164.49,7.834z"/>
</svg>
