<?xml version="1.0" encoding="utf-8"?>
<!-- Generator: Adobe Illustrator 16.2.1, SVG Export Plug-In . SVG Version: 6.00 Build 0)  -->
<!DOCTYPE svg PUBLIC "-//W3C//DTD SVG 1.1//EN" "http://www.w3.org/Graphics/SVG/1.1/DTD/svg11.dtd">
<svg version="1.1" id="Layer_1" xmlns="http://www.w3.org/2000/svg" xmlns:xlink="http://www.w3.org/1999/xlink" x="0px" y="0px"
	 width="122px" height="244px" viewBox="0 0 122 244" enable-background="new 0 0 122 244" xml:space="preserve">
<g id="Layer_2">
</g>
<g id="tw" display="none">
	<g display="inline">
		<g>
			<path fill="#9B9B9B" d="M30.453,83.868c7.239,0.664,13.594-1.106,19.415-5.467c-3.77-0.228-6.844-1.566-9.332-4.173
				c-1.399-1.464-2.667-3.653-2.857-4.968c1.846,0.245,3.677,0.283,5.508-0.268c-2.968-0.812-5.47-2.33-7.384-4.742
				c-1.907-2.404-2.833-5.154-2.878-8.341c1.858,0.926,3.727,1.524,5.926,1.615c-3.496-2.585-5.45-5.882-5.77-10.06
				c-0.203-2.654,0.371-5.153,1.74-7.508c7.152,8.392,16.142,12.999,27.193,13.763c-0.396-1.943-0.472-3.76-0.07-5.572
				c1.107-4.996,4.066-8.429,8.926-9.988c4.835-1.552,9.227-0.48,13.002,2.918c0.52,0.468,0.938,0.569,1.582,0.404
				c2.438-0.621,4.768-1.507,6.959-2.742c0.083-0.046,0.172-0.078,0.422-0.194c-1.025,3.088-2.893,5.331-5.422,7.104
				c2.447-0.216,4.757-0.925,7.018-1.845c0.045,0.06,0.09,0.117,0.137,0.176c-0.989,1.165-1.928,2.379-2.983,3.48
				c-0.896,0.936-1.903,1.771-2.912,2.587c-0.421,0.339-0.573,0.659-0.571,1.2c0.027,11.545-4.109,21.338-12.568,29.2
				c-5.488,5.099-12.079,7.965-19.496,8.944c-8.801,1.162-17.051-0.431-24.709-4.96C31.083,84.291,30.854,84.13,30.453,83.868z"/>
		</g>
	</g>
	<g display="inline">
		<g>
			<path fill="#FFFFFF" d="M29.944,206.368c7.239,0.664,13.594-1.106,19.415-5.468c-3.77-0.228-6.844-1.565-9.332-4.172
				c-1.399-1.465-2.667-3.653-2.857-4.969c1.846,0.245,3.677,0.283,5.508-0.268c-2.968-0.812-5.47-2.33-7.384-4.742
				c-1.907-2.404-2.833-5.154-2.878-8.341c1.858,0.926,3.727,1.524,5.926,1.614c-3.496-2.584-5.45-5.881-5.77-10.06
				c-0.203-2.653,0.371-5.153,1.74-7.508c7.152,8.392,16.142,12.999,27.192,13.763c-0.396-1.943-0.471-3.76-0.07-5.572
				c1.108-4.996,4.067-8.429,8.925-9.987c4.836-1.552,9.228-0.479,13.002,2.918c0.52,0.468,0.938,0.569,1.582,0.403
				c2.438-0.621,4.768-1.506,6.959-2.742c0.084-0.045,0.173-0.077,0.423-0.193c-1.026,3.088-2.892,5.331-5.423,7.104
				c2.447-0.215,4.758-0.924,7.018-1.844c0.045,0.059,0.092,0.116,0.137,0.176c-0.988,1.164-1.927,2.379-2.982,3.479
				c-0.896,0.937-1.903,1.771-2.912,2.587c-0.421,0.339-0.574,0.659-0.572,1.2c0.028,11.545-4.109,21.338-12.568,29.2
				c-5.487,5.099-12.078,7.965-19.496,8.943c-8.801,1.162-17.051-0.431-24.709-4.959C30.575,206.791,30.346,206.63,29.944,206.368z"
				/>
		</g>
	</g>
</g>
<g id="Layer_3" display="none">
	<g id="_x23_020201ff" display="inline">
		<path fill="#9B9B9B" d="M54.639,35.087c2.248-2.141,5.445-2.863,8.46-2.953c3.188-0.029,6.379-0.011,9.568-0.01
			c0.014,3.365,0.014,6.731-0.002,10.096c-2.061-0.003-4.124,0.005-6.186-0.003c-1.308-0.082-2.648,0.909-2.888,2.205
			c-0.03,2.251-0.011,4.504-0.01,6.756c3.022,0.012,6.046-0.004,9.069,0.007c-0.221,3.257-0.625,6.5-1.1,9.729
			c-2.67,0.025-5.343-0.003-8.014,0.013c-0.023,9.607,0.013,19.213-0.018,28.82c-3.967,0.017-7.937-0.007-11.903,0.011
			c-0.075-9.608,0.006-19.221-0.042-28.829c-1.935-0.021-3.871,0.013-5.806-0.017c0.007-3.23,0.002-6.459,0.003-9.688
			c1.934-0.023,3.869,0.005,5.803-0.013c0.059-3.14-0.059-6.284,0.062-9.42C51.834,39.306,52.781,36.803,54.639,35.087z"/>
	</g>
	<g id="_x23_020201ff_1_" display="inline">
		<path fill="#FFFFFF" d="M55.922,157.262c2.248-2.142,5.445-2.863,8.461-2.953c3.188-0.029,6.379-0.012,9.568-0.012
			c0.013,3.365,0.013,6.73-0.002,10.096c-2.061-0.002-4.124,0.006-6.186-0.002c-1.308-0.082-2.648,0.908-2.888,2.203
			c-0.03,2.252-0.011,4.506-0.01,6.758c3.022,0.012,6.046-0.004,9.069,0.006c-0.222,3.259-0.625,6.5-1.101,9.73
			c-2.669,0.023-5.342-0.004-8.013,0.014c-0.023,9.605,0.013,19.213-0.018,28.818c-3.968,0.018-7.937-0.007-11.904,0.012
			c-0.075-9.606,0.006-19.221-0.042-28.828c-1.935-0.021-3.871,0.013-5.806-0.018c0.007-3.23,0.002-6.459,0.003-9.688
			c1.934-0.023,3.869,0.004,5.803-0.015c0.059-3.141-0.059-6.282,0.062-9.42C53.118,161.479,54.064,158.977,55.922,157.262z"/>
	</g>
</g>
<g id="Layer_4" display="none">
	<g display="inline">
		<path fill="#9B9B9B" d="M57.125,71.353c-0.561,2.188-1.185,4.295-1.633,6.439c-0.977,4.675-3.195,8.728-6.045,12.48
			c-0.249,0.327-0.645,0.795-0.944,0.776c-0.583-0.039-0.392-0.7-0.45-1.097c-0.713-4.887-0.423-9.698,0.847-14.493
			c1.274-4.809,2.323-9.678,3.448-14.526c0.069-0.299-0.01-0.666-0.116-0.968c-0.997-2.886-1.172-5.776-0.083-8.676
			c0.476-1.267,1.207-2.368,2.267-3.226c0.949-0.767,2.025-1.203,3.258-1.212c2.346-0.019,3.995,1.406,4.374,3.736
			c0.287,1.765-0.118,3.448-0.581,5.116c-0.665,2.397-1.373,4.783-2.091,7.165c-1.326,4.391,2.403,7.68,6.709,6.607
			c1.86-0.463,3.306-1.558,4.5-3.01c1.753-2.133,2.767-4.621,3.397-7.276c0.709-2.977,1.103-5.999,0.641-9.043
			c-0.816-5.377-4.001-8.706-9.24-9.914c-5.059-1.167-9.879-0.479-14.163,2.651c-5.43,3.969-6.97,10.868-5.792,15.49
			c0.33,1.29,0.921,2.452,1.802,3.447c0.527,0.597,0.678,1.214,0.438,1.98c-0.241,0.763-0.393,1.553-0.598,2.328
			c-0.272,1.027-0.872,1.319-1.858,0.886c-2.884-1.262-4.66-3.539-5.582-6.453c-2.004-6.338-0.851-12.197,3.066-17.489
			c3.569-4.824,8.5-7.482,14.345-8.493c4.198-0.726,8.389-0.675,12.447,0.751c6.682,2.346,11.148,6.823,12.881,13.799
			c0.705,2.837,0.492,5.709,0.072,8.562c-0.594,4.026-1.914,7.783-4.4,11.053c-3.214,4.225-7.461,6.542-12.807,6.568
			C61.968,75.325,59.183,74.136,57.125,71.353z"/>
	</g>
	<g display="inline">
		<path fill="#FFFFFF" d="M57.379,190c-0.561,2.188-1.185,4.295-1.633,6.439c-0.977,4.674-3.195,8.728-6.045,12.479
			c-0.249,0.326-0.645,0.795-0.944,0.774c-0.583-0.039-0.392-0.698-0.45-1.096c-0.713-4.889-0.423-9.699,0.847-14.494
			c1.274-4.809,2.323-9.678,3.448-14.525c0.069-0.301-0.01-0.665-0.116-0.969c-0.997-2.885-1.172-5.775-0.083-8.676
			c0.476-1.268,1.207-2.367,2.267-3.227c0.949-0.766,2.025-1.203,3.258-1.212c2.346-0.019,3.995,1.405,4.374,3.735
			c0.287,1.766-0.118,3.447-0.581,5.115c-0.666,2.397-1.374,4.782-2.092,7.165c-1.326,4.392,2.405,7.681,6.709,6.606
			c1.859-0.463,3.305-1.559,4.5-3.012c1.752-2.133,2.766-4.621,3.398-7.274c0.707-2.978,1.102-5.999,0.639-9.043
			c-0.816-5.378-4-8.706-9.24-9.914c-5.058-1.166-9.878-0.479-14.163,2.649c-5.43,3.97-6.97,10.869-5.792,15.49
			c0.33,1.291,0.921,2.452,1.802,3.447c0.527,0.598,0.678,1.214,0.438,1.98c-0.241,0.763-0.393,1.553-0.598,2.328
			c-0.272,1.026-0.872,1.317-1.858,0.885c-2.884-1.262-4.66-3.538-5.582-6.452c-2.004-6.339-0.851-12.196,3.066-17.489
			c3.569-4.822,8.5-7.48,14.345-8.492c4.198-0.727,8.389-0.675,12.447,0.752c6.682,2.346,11.148,6.822,12.881,13.799
			c0.705,2.836,0.492,5.709,0.072,8.562c-0.594,4.026-1.914,7.783-4.4,11.053c-3.215,4.226-7.461,6.541-12.807,6.568
			C62.221,193.973,59.436,192.783,57.379,190z"/>
	</g>
</g>
<g id="Layer_5" display="none">
	<g display="inline">
		<g>
			<polygon fill="#9B9B9B" points="43.021,31.641 46.58,31.641 48.875,39.962 49.096,39.962 51.279,31.641 54.871,31.641 
				50.759,43.822 50.759,52.46 47.227,52.46 47.227,44.211 			"/>
			<path fill="#9B9B9B" d="M55.124,40.614c0-1.192,0.422-2.139,1.27-2.843c0.844-0.706,1.982-1.058,3.405-1.058
				c1.297,0,2.362,0.372,3.193,1.116c0.826,0.743,1.242,1.701,1.242,2.872v7.935c0,1.313-0.406,2.342-1.217,3.09
				c-0.818,0.747-1.937,1.123-3.364,1.123c-1.37,0-2.47-0.388-3.295-1.156c-0.818-0.773-1.235-1.812-1.235-3.117V40.614
				L55.124,40.614z M58.354,48.865c0,0.421,0.115,0.744,0.338,0.977c0.222,0.231,0.541,0.346,0.957,0.346
				c0.424,0,0.76-0.119,1.012-0.351c0.252-0.237,0.377-0.562,0.377-0.971v-8.368c0-0.336-0.13-0.606-0.386-0.814
				c-0.257-0.206-0.591-0.309-1.003-0.309c-0.385,0-0.694,0.103-0.935,0.309c-0.237,0.208-0.36,0.478-0.36,0.814V48.865
				L58.354,48.865z"/>
			<path fill="#9B9B9B" d="M75.732,37.101V52.46h-3.139v-1.696c-0.572,0.624-1.176,1.104-1.805,1.429
				c-0.625,0.327-1.23,0.489-1.82,0.489c-0.73,0-1.271-0.229-1.641-0.686c-0.366-0.458-0.551-1.143-0.551-2.058V37.101h3.133v11.775
				c0,0.364,0.072,0.627,0.203,0.79c0.129,0.163,0.345,0.246,0.639,0.246c0.229,0,0.521-0.109,0.875-0.323
				c0.352-0.216,0.676-0.491,0.966-0.829V37.101H75.732z"/>
		</g>
		<g>
			<path fill="#9B9B9B" d="M66.135,71.394c-0.199,0-0.396,0.042-0.591,0.135c-0.192,0.092-0.384,0.233-0.575,0.425v8.688
				c0.225,0.225,0.447,0.395,0.663,0.493c0.212,0.098,0.437,0.151,0.673,0.151c0.342,0,0.592-0.098,0.75-0.298
				c0.16-0.195,0.243-0.512,0.243-0.96v-7.201c0-0.47-0.097-0.828-0.293-1.072C66.801,71.515,66.51,71.394,66.135,71.394z"/>
			<path fill="#9B9B9B" d="M75.746,71.444c-0.444,0-0.764,0.124-0.957,0.384c-0.193,0.244-0.287,0.666-0.287,1.249v1.409h2.463
				v-1.409c0-0.583-0.1-1.004-0.294-1.249C76.482,71.567,76.168,71.444,75.746,71.444z"/>
			<path fill="#9B9B9B" d="M82.102,60.587c-2.287-2.249-21.578-2.279-21.578-2.278c0-0.001-19.287,0.029-21.581,2.278
				c-2.295,2.252-2.302,13.373-2.302,13.437v0.021c0,0.064,0.006,11.166,2.302,13.418c2.294,2.248,21.581,2.296,21.581,2.296
				s19.291-0.049,21.578-2.296c2.306-2.26,2.322-13.439,2.322-13.439C84.424,73.96,84.4,62.84,82.102,60.587z M50.873,67.139h-3.249
				v16.155h-3.143V67.139h-3.248v-2.745h9.639L50.873,67.139L50.873,67.139z M60.058,83.294h-2.786v-1.533
				c-0.518,0.569-1.05,0.999-1.61,1.293c-0.556,0.3-1.094,0.443-1.62,0.443c-0.647,0-1.125-0.203-1.457-0.622
				c-0.322-0.418-0.487-1.035-0.487-1.868V69.349h2.786v10.695c0,0.331,0.059,0.569,0.172,0.715
				c0.122,0.151,0.313,0.222,0.573,0.222c0.202,0,0.466-0.098,0.778-0.293c0.315-0.197,0.6-0.444,0.865-0.746V69.349h2.786V83.294
				L60.058,83.294z M70.168,80.413c0,0.987-0.219,1.743-0.654,2.27c-0.437,0.528-1.07,0.788-1.896,0.788
				c-0.547,0-1.032-0.098-1.457-0.302c-0.426-0.203-0.829-0.516-1.191-0.944v1.069h-2.816v-18.9h2.816v6.085
				c0.379-0.422,0.776-0.749,1.195-0.967c0.424-0.222,0.854-0.331,1.284-0.331c0.885,0,1.558,0.296,2.021,0.888
				c0.469,0.596,0.699,1.466,0.699,2.607V80.413L70.168,80.413z M79.831,76.656h-5.329v2.627c0,0.735,0.09,1.242,0.271,1.529
				c0.188,0.283,0.5,0.422,0.943,0.422c0.463,0,0.784-0.12,0.969-0.361c0.182-0.24,0.278-0.769,0.278-1.59v-0.636h2.866v0.716
				c0,1.43-0.348,2.507-1.051,3.234c-0.693,0.719-1.737,1.077-3.127,1.077c-1.246,0-2.23-0.38-2.946-1.148
				c-0.718-0.765-1.079-1.818-1.079-3.162v-6.262c0-1.206,0.396-2.196,1.186-2.956c0.787-0.761,1.801-1.142,3.051-1.142
				c1.275,0,2.258,0.354,2.941,1.058c0.686,0.704,1.025,1.716,1.025,3.04L79.831,76.656L79.831,76.656L79.831,76.656z"/>
		</g>
	</g>
	<g display="inline">
		<g>
			<polygon fill="#FFFFFF" points="43.021,148.641 46.58,148.641 48.875,156.963 49.096,156.963 51.279,148.641 54.871,148.641 
				50.759,160.822 50.759,169.46 47.227,169.46 47.227,161.211 			"/>
			<path fill="#FFFFFF" d="M55.124,157.613c0-1.191,0.422-2.139,1.27-2.842c0.844-0.707,1.982-1.06,3.405-1.06
				c1.297,0,2.362,0.372,3.193,1.115c0.826,0.743,1.242,1.7,1.242,2.872v7.935c0,1.313-0.406,2.343-1.217,3.091
				c-0.818,0.748-1.937,1.123-3.364,1.123c-1.37,0-2.47-0.389-3.295-1.156c-0.818-0.772-1.235-1.812-1.235-3.117V157.613
				L55.124,157.613z M58.354,165.865c0,0.42,0.115,0.744,0.338,0.977c0.222,0.23,0.541,0.346,0.957,0.346
				c0.424,0,0.76-0.119,1.012-0.352c0.252-0.236,0.377-0.562,0.377-0.971v-8.368c0-0.336-0.13-0.606-0.386-0.813
				c-0.257-0.207-0.591-0.309-1.003-0.309c-0.385,0-0.694,0.102-0.935,0.309c-0.237,0.207-0.36,0.479-0.36,0.813V165.865
				L58.354,165.865z"/>
			<path fill="#FFFFFF" d="M75.732,154.102v15.358h-3.139v-1.696c-0.572,0.625-1.176,1.104-1.805,1.43
				c-0.625,0.326-1.23,0.488-1.82,0.488c-0.73,0-1.271-0.229-1.641-0.686c-0.366-0.458-0.551-1.143-0.551-2.059V154.1h3.133v11.774
				c0,0.364,0.072,0.628,0.203,0.791c0.129,0.162,0.345,0.245,0.639,0.245c0.229,0,0.521-0.109,0.875-0.323
				c0.352-0.217,0.676-0.491,0.966-0.829V154.1h3.14V154.102z"/>
		</g>
		<g>
			<path fill="#FFFFFF" d="M66.135,188.395c-0.199,0-0.396,0.041-0.591,0.135c-0.192,0.093-0.384,0.234-0.575,0.427v8.688
				c0.225,0.226,0.447,0.396,0.663,0.492c0.212,0.098,0.437,0.151,0.673,0.151c0.342,0,0.592-0.099,0.75-0.3
				c0.16-0.194,0.243-0.512,0.243-0.959v-7.2c0-0.472-0.097-0.828-0.293-1.072C66.801,188.516,66.51,188.395,66.135,188.395z"/>
			<path fill="#FFFFFF" d="M75.746,188.443c-0.444,0-0.764,0.123-0.957,0.385c-0.193,0.244-0.287,0.666-0.287,1.249v1.409h2.463
				v-1.409c0-0.583-0.1-1.005-0.294-1.249C76.482,188.566,76.168,188.443,75.746,188.443z"/>
			<path fill="#FFFFFF" d="M82.102,177.588c-2.287-2.25-21.578-2.279-21.578-2.277c0-0.002-19.287,0.027-21.581,2.277
				c-2.295,2.252-2.302,13.373-2.302,13.438v0.021c0,0.063,0.006,11.166,2.302,13.418c2.294,2.248,21.581,2.297,21.581,2.297
				s19.291-0.049,21.578-2.297c2.306-2.26,2.322-13.438,2.322-13.438C84.424,190.961,84.4,179.84,82.102,177.588z M50.873,184.139
				h-3.249v16.155h-3.143v-16.155h-3.248v-2.744h9.639L50.873,184.139L50.873,184.139z M60.058,200.294h-2.786v-1.532
				c-0.518,0.568-1.05,0.998-1.61,1.293c-0.556,0.299-1.094,0.442-1.62,0.442c-0.647,0-1.125-0.203-1.457-0.622
				c-0.322-0.418-0.487-1.035-0.487-1.867V186.35h2.786v10.695c0,0.33,0.059,0.568,0.172,0.715c0.122,0.15,0.313,0.223,0.573,0.223
				c0.202,0,0.466-0.099,0.778-0.293c0.315-0.197,0.6-0.444,0.865-0.746V186.35h2.786V200.294L60.058,200.294z M70.168,197.413
				c0,0.987-0.219,1.743-0.654,2.271c-0.437,0.527-1.07,0.787-1.896,0.787c-0.547,0-1.032-0.098-1.457-0.302
				c-0.426-0.202-0.829-0.517-1.191-0.944v1.069h-2.816v-18.899h2.816v6.084c0.379-0.422,0.776-0.748,1.195-0.967
				c0.424-0.223,0.854-0.33,1.284-0.33c0.885,0,1.558,0.295,2.021,0.887c0.469,0.597,0.699,1.468,0.699,2.607V197.413
				L70.168,197.413z M79.831,193.656h-5.329v2.627c0,0.734,0.09,1.242,0.271,1.529c0.188,0.281,0.5,0.422,0.943,0.422
				c0.463,0,0.784-0.121,0.969-0.361c0.182-0.24,0.278-0.77,0.278-1.59v-0.637h2.866v0.717c0,1.43-0.348,2.507-1.051,3.234
				c-0.693,0.719-1.737,1.075-3.127,1.075c-1.246,0-2.23-0.38-2.946-1.147c-0.718-0.766-1.079-1.818-1.079-3.162v-6.262
				c0-1.207,0.396-2.197,1.186-2.957c0.787-0.762,1.801-1.142,3.051-1.142c1.275,0,2.258,0.354,2.941,1.058
				c0.684,0.705,1.025,1.717,1.025,3.041L79.831,193.656L79.831,193.656L79.831,193.656z"/>
		</g>
	</g>
</g>
<g id="Layer_6">
	<g>
		<path fill="#FFFFFF" d="M72.625,51.633c3.829,8.48,2.932,15.018-2.659,19.785c-5.058,4.312-12.266,4.817-17.793,1.186
			c-3.485-2.288-5.669-5.498-6.479-9.604c-0.801-4.073,0.099-7.835,2.307-11.338c-5.684,0-11.189,0-16.763,0
			c0,0.589,0,1.059,0,1.529c0,8.041-0.007,16.083,0.002,24.124c0.007,6.892,4.908,11.783,11.797,11.784
			c11.447,0.003,22.895,0.002,34.341,0.001c7.142-0.001,12.036-4.883,12.04-12.011c0.005-7.946,0.001-15.893,0.001-23.84
			c0-0.508,0-1.017,0-1.614C83.762,51.633,78.248,51.633,72.625,51.633z M31.088,49.729c6.263,0,12.167,0.013,18.072-0.027
			c0.402-0.002,0.856-0.34,1.194-0.63c5.856-5.024,13.878-5.055,19.718-0.115c0.518,0.437,1.326,0.738,2.003,0.746
			c5.294,0.061,10.589,0.037,15.884,0.029c0.45,0,0.9-0.065,1.46-0.109c0-2.444,0.004-4.753-0.001-7.061
			c-0.012-6.914-4.995-11.922-11.875-11.927c-9.836-0.005-19.668-0.001-29.502-0.001c-0.498,0-0.995,0-1.641,0
			c0,4.918,0,9.624,0,14.391c-0.83,0-1.508,0-2.357,0c0-4.829,0-9.577,0-14.419c-0.62,0.056-1.063,0.096-1.643,0.147
			c0,4.827,0,9.532,0,14.258c-0.83,0-1.509,0-2.326,0c0-4.701,0-9.305,0-13.9c-1.366-0.073-1.774,0.507-1.695,1.706
			c0.092,1.413,0.021,2.835,0.021,4.253c0,2.636,0,5.271,0,7.949c-0.831,0-1.507,0-2.337,0c0-4.066,0-8.046,0-12.262
			c-2.411,1.813-4.093,3.923-4.44,6.615C31.19,42.717,31.25,46.126,31.088,49.729z"/>
		<path fill="#FFFFFF" d="M72.625,51.633c5.623,0,11.137,0,16.794,0c0,0.597,0,1.105,0,1.614c0,7.947,0.004,15.894-0.001,23.84
			c-0.004,7.128-4.898,12.01-12.04,12.011c-11.446,0.001-22.894,0.002-34.341-0.001c-6.89-0.001-11.791-4.892-11.797-11.784
			c-0.009-8.041-0.002-16.083-0.002-24.124c0-0.47,0-0.94,0-1.529c5.573,0,11.079,0,16.763,0c-2.208,3.503-3.108,7.265-2.307,11.338
			c0.81,4.106,2.994,7.316,6.479,9.604c5.528,3.631,12.736,3.127,17.793-1.186C75.557,66.65,76.454,60.113,72.625,51.633z"/>
		<path fill="#FFFFFF" d="M31.088,49.729c0.163-3.603,0.103-7.012,0.535-10.357c0.348-2.692,2.03-4.802,4.44-6.615
			c0,4.216,0,8.196,0,12.262c0.831,0,1.506,0,2.337,0c0-2.679,0-5.313,0-7.949c0-1.418,0.071-2.841-0.021-4.253
			c-0.079-1.199,0.329-1.779,1.695-1.706c0,4.595,0,9.199,0,13.9c0.817,0,1.496,0,2.326,0c0-4.726,0-9.431,0-14.258
			c0.58-0.051,1.022-0.091,1.643-0.147c0,4.842,0,9.59,0,14.419c0.849,0,1.527,0,2.357,0c0-4.768,0-9.473,0-14.391
			c0.646,0,1.143,0,1.641,0c9.833,0,19.666-0.004,29.502,0.001c6.88,0.004,11.863,5.013,11.875,11.927
			c0.005,2.308,0.001,4.617,0.001,7.061c-0.56,0.044-1.01,0.109-1.46,0.109c-5.295,0.008-10.59,0.032-15.884-0.029
			c-0.677-0.008-1.485-0.309-2.003-0.746c-5.84-4.94-13.862-4.909-19.718,0.115c-0.338,0.29-0.792,0.627-1.194,0.63
			C43.255,49.742,37.351,49.729,31.088,49.729z M84.098,40.465c0-0.944,0.019-1.889-0.005-2.833
			c-0.032-1.426-0.655-2.13-2.036-2.164c-1.935-0.048-3.871-0.044-5.807,0c-1.291,0.03-2.002,0.757-2.02,2.062
			c-0.021,1.983-0.03,3.965,0.004,5.947c0.022,1.303,0.738,1.999,2.056,2.006c1.937,0.011,3.87,0.024,5.806-0.007
			c1.303-0.021,2-0.706,2.002-2.039C84.098,42.447,84.098,41.456,84.098,40.465z"/>
		<path fill="#FFFFFF" d="M60.318,48.705c6.327,0.012,11.476,5.167,11.452,11.468c-0.022,6.307-5.179,11.46-11.48,11.477
			c-6.379,0.018-11.538-5.184-11.484-11.577C48.858,53.698,53.928,48.693,60.318,48.705z M68.75,60.228
			c0.023-4.686-3.746-8.523-8.406-8.555c-4.634-0.033-8.487,3.817-8.486,8.48c0.001,4.618,3.743,8.416,8.342,8.464
			C64.875,68.667,68.729,64.889,68.75,60.228z"/>
		<path fill="#FFFFFF" d="M84.098,40.465c0,0.991,0,1.982,0,2.974c-0.002,1.333-0.699,2.019-2.002,2.039
			c-1.936,0.031-3.869,0.018-5.806,0.007c-1.317-0.008-2.032-0.704-2.056-2.006c-0.034-1.982-0.025-3.964-0.004-5.947
			c0.018-1.305,0.729-2.032,2.02-2.062c1.936-0.044,3.872-0.048,5.807,0c1.381,0.034,2.004,0.737,2.036,2.164
			C84.115,38.576,84.098,39.521,84.098,40.465z"/>
	</g>
	<g>
		<path fill="#9BC2C5" d="M72.625,175.633c3.829,8.48,2.932,15.018-2.659,19.785c-5.058,4.312-12.266,4.816-17.793,1.186
			c-3.485-2.287-5.669-5.498-6.479-9.604c-0.801-4.074,0.099-7.836,2.307-11.339c-5.684,0-11.189,0-16.763,0c0,0.589,0,1.06,0,1.528
			c0,8.041-0.007,16.082,0.002,24.123c0.007,6.893,4.908,11.783,11.797,11.785c11.447,0.002,22.895,0.002,34.341,0
			c7.142,0,12.036-4.884,12.04-12.012c0.005-7.945,0.001-15.895,0.001-23.841c0-0.509,0-1.017,0-1.613
			C83.762,175.633,78.248,175.633,72.625,175.633z M31.088,173.729c6.263,0,12.167,0.015,18.072-0.026
			c0.402-0.002,0.856-0.341,1.194-0.629c5.856-5.025,13.878-5.056,19.718-0.115c0.518,0.437,1.326,0.737,2.003,0.745
			c5.294,0.062,10.589,0.037,15.884,0.029c0.45-0.002,0.9-0.065,1.46-0.109c0-2.443,0.004-4.753-0.001-7.061
			c-0.012-6.914-4.995-11.924-11.875-11.928c-9.836-0.005-19.668-0.001-29.502-0.001c-0.498,0-0.995,0-1.641,0
			c0,4.919,0,9.624,0,14.392c-0.83,0-1.508,0-2.357,0c0-4.83,0-9.577,0-14.42c-0.62,0.058-1.063,0.097-1.643,0.146
			c0,4.828,0,9.533,0,14.258c-0.83,0-1.509,0-2.326,0c0-4.699,0-9.305,0-13.898c-1.366-0.073-1.774,0.507-1.695,1.705
			c0.092,1.412,0.021,2.836,0.021,4.254c0,2.636,0,5.271,0,7.949c-0.831,0-1.507,0-2.337,0c0-4.065,0-8.047,0-12.263
			c-2.411,1.813-4.093,3.923-4.44,6.615C31.19,166.717,31.25,170.127,31.088,173.729z"/>
		<path fill="#9BC2C5" d="M72.625,175.633c5.623,0,11.137,0,16.794,0c0,0.598,0,1.105,0,1.613c0,7.947,0.004,15.895-0.001,23.841
			c-0.004,7.128-4.898,12.011-12.04,12.011c-11.446,0.002-22.894,0.004-34.341,0c-6.89-0.002-11.791-4.893-11.797-11.783
			c-0.009-8.041-0.002-16.084-0.002-24.125c0-0.469,0-0.938,0-1.527c5.573,0,11.079,0,16.763,0
			c-2.208,3.503-3.108,7.265-2.307,11.339c0.81,4.104,2.994,7.315,6.479,9.604c5.528,3.631,12.736,3.127,17.793-1.187
			C75.557,190.65,76.454,184.113,72.625,175.633z"/>
		<path fill="#9BC2C5" d="M31.088,173.729c0.163-3.602,0.103-7.012,0.535-10.355c0.348-2.691,2.03-4.803,4.44-6.615
			c0,4.217,0,8.196,0,12.264c0.831,0,1.506,0,2.337,0c0-2.681,0-5.314,0-7.949c0-1.418,0.071-2.842-0.021-4.254
			c-0.079-1.199,0.329-1.779,1.695-1.707c0,4.596,0,9.199,0,13.9c0.817,0,1.496,0,2.326,0c0-4.726,0-9.431,0-14.259
			c0.58-0.051,1.022-0.09,1.643-0.146c0,4.842,0,9.59,0,14.42c0.849,0,1.527,0,2.357,0c0-4.769,0-9.473,0-14.393
			c0.646,0,1.143,0,1.641,0c9.833,0,19.666-0.004,29.502,0.002c6.88,0.004,11.863,5.012,11.875,11.926
			c0.005,2.309,0.001,4.617,0.001,7.062c-0.56,0.044-1.01,0.108-1.46,0.108c-5.295,0.009-10.59,0.033-15.884-0.028
			c-0.677-0.009-1.485-0.31-2.003-0.745c-5.84-4.939-13.862-4.91-19.718,0.115c-0.338,0.289-0.792,0.627-1.194,0.629
			C43.255,173.742,37.351,173.729,31.088,173.729z M84.098,164.465c0-0.943,0.019-1.889-0.005-2.832
			c-0.032-1.427-0.655-2.131-2.036-2.164c-1.935-0.048-3.871-0.045-5.807,0c-1.291,0.029-2.002,0.758-2.02,2.062
			c-0.021,1.982-0.03,3.965,0.004,5.947c0.022,1.303,0.738,1.998,2.056,2.006c1.937,0.011,3.87,0.023,5.806-0.008
			c1.303-0.021,2-0.705,2.002-2.039C84.098,166.447,84.098,165.455,84.098,164.465z"/>
		<path fill="#9BC2C5" d="M60.318,172.705c6.327,0.012,11.476,5.167,11.452,11.468c-0.022,6.308-5.179,11.46-11.48,11.478
			c-6.379,0.019-11.538-5.185-11.484-11.576C48.858,177.697,53.928,172.693,60.318,172.705z M68.75,184.229
			c0.023-4.687-3.746-8.522-8.406-8.555c-4.634-0.033-8.487,3.816-8.486,8.479c0.001,4.619,3.743,8.416,8.342,8.465
			C64.875,192.668,68.729,188.889,68.75,184.229z"/>
		<path fill="#9BC2C5" d="M84.098,164.465c0,0.99,0,1.982,0,2.975c-0.002,1.332-0.699,2.019-2.002,2.039
			c-1.936,0.03-3.869,0.018-5.806,0.006c-1.317-0.008-2.032-0.702-2.056-2.006c-0.034-1.981-0.025-3.965-0.004-5.946
			c0.018-1.306,0.729-2.033,2.02-2.062c1.936-0.046,3.872-0.049,5.807,0c1.381,0.032,2.004,0.736,2.036,2.163
			C84.115,162.576,84.098,163.521,84.098,164.465z"/>
	</g>
</g>
</svg>
