<?xml version="1.0" encoding="utf-8"?>
<!-- Generator: Adobe Illustrator 16.2.1, SVG Export Plug-In . SVG Version: 6.00 Build 0)  -->
<!DOCTYPE svg PUBLIC "-//W3C//DTD SVG 1.1//EN" "http://www.w3.org/Graphics/SVG/1.1/DTD/svg11.dtd">
<svg version="1.1" id="Layer_1" xmlns="http://www.w3.org/2000/svg" xmlns:xlink="http://www.w3.org/1999/xlink" x="0px" y="0px"
	 width="122px" height="244px" viewBox="0 0 122 244" enable-background="new 0 0 122 244" xml:space="preserve">
<g id="Layer_2">
</g>
<g id="tw" display="none">
	<g display="inline">
		<g>
			<path fill="#9B9B9B" d="M30.453,83.868c7.239,0.664,13.594-1.106,19.415-5.467c-3.77-0.228-6.844-1.566-9.332-4.173
				c-1.399-1.464-2.667-3.653-2.857-4.968c1.846,0.245,3.677,0.283,5.508-0.268c-2.968-0.812-5.47-2.33-7.384-4.742
				c-1.907-2.404-2.833-5.154-2.878-8.341c1.858,0.926,3.727,1.524,5.926,1.615c-3.496-2.585-5.45-5.882-5.77-10.06
				c-0.203-2.654,0.371-5.153,1.74-7.508c7.152,8.392,16.142,12.999,27.193,13.763c-0.396-1.943-0.472-3.76-0.07-5.572
				c1.107-4.996,4.066-8.429,8.926-9.988c4.835-1.552,9.227-0.48,13.002,2.918c0.52,0.468,0.938,0.569,1.582,0.404
				c2.438-0.621,4.768-1.507,6.959-2.742c0.083-0.046,0.172-0.078,0.422-0.194c-1.025,3.088-2.893,5.331-5.422,7.104
				c2.447-0.216,4.757-0.925,7.018-1.845c0.045,0.06,0.09,0.117,0.137,0.176c-0.989,1.165-1.928,2.379-2.983,3.48
				c-0.896,0.936-1.903,1.771-2.912,2.587c-0.421,0.339-0.573,0.659-0.571,1.2c0.027,11.545-4.109,21.338-12.568,29.2
				c-5.488,5.099-12.079,7.965-19.496,8.944c-8.801,1.162-17.051-0.431-24.709-4.96C31.083,84.291,30.854,84.13,30.453,83.868z"/>
		</g>
	</g>
	<g display="inline">
		<g>
			<path fill="#FFFFFF" d="M29.944,206.368c7.239,0.664,13.594-1.106,19.415-5.468c-3.77-0.228-6.844-1.565-9.332-4.172
				c-1.399-1.465-2.667-3.653-2.857-4.969c1.846,0.245,3.677,0.283,5.508-0.268c-2.968-0.812-5.47-2.33-7.384-4.742
				c-1.907-2.404-2.833-5.154-2.878-8.341c1.858,0.926,3.727,1.524,5.926,1.614c-3.496-2.584-5.45-5.881-5.77-10.06
				c-0.203-2.653,0.371-5.153,1.74-7.508c7.152,8.392,16.142,12.999,27.192,13.763c-0.396-1.943-0.471-3.76-0.07-5.572
				c1.108-4.996,4.067-8.429,8.925-9.987c4.836-1.552,9.228-0.479,13.002,2.918c0.52,0.468,0.938,0.569,1.582,0.403
				c2.438-0.621,4.768-1.506,6.959-2.742c0.084-0.045,0.173-0.077,0.423-0.193c-1.026,3.088-2.892,5.331-5.423,7.104
				c2.447-0.215,4.758-0.924,7.018-1.844c0.045,0.059,0.092,0.116,0.137,0.176c-0.988,1.164-1.927,2.379-2.982,3.479
				c-0.896,0.937-1.903,1.771-2.912,2.587c-0.421,0.339-0.574,0.659-0.572,1.2c0.028,11.545-4.109,21.338-12.568,29.2
				c-5.487,5.099-12.078,7.965-19.496,8.943c-8.801,1.162-17.051-0.431-24.709-4.959C30.575,206.791,30.346,206.63,29.944,206.368z"
				/>
		</g>
	</g>
</g>
<g id="Layer_3">
	<g id="_x23_020201ff">
		<path fill="#FFFFFF" d="M54.639,35.087c2.248-2.141,5.445-2.863,8.46-2.953c3.188-0.029,6.379-0.011,9.568-0.01
			c0.014,3.365,0.014,6.731-0.002,10.096c-2.061-0.003-4.124,0.005-6.186-0.003c-1.308-0.082-2.648,0.909-2.888,2.205
			c-0.03,2.251-0.011,4.504-0.01,6.756c3.022,0.012,6.046-0.004,9.069,0.007c-0.221,3.257-0.625,6.5-1.1,9.729
			c-2.67,0.025-5.343-0.003-8.014,0.013c-0.023,9.607,0.013,19.213-0.018,28.82c-3.967,0.017-7.937-0.007-11.903,0.011
			c-0.075-9.608,0.006-19.221-0.042-28.829c-1.935-0.021-3.871,0.013-5.806-0.017c0.007-3.23,0.002-6.459,0.003-9.688
			c1.934-0.023,3.869,0.005,5.803-0.013c0.059-3.14-0.059-6.284,0.062-9.42C51.834,39.306,52.781,36.803,54.639,35.087z"/>
	</g>
	<g id="_x23_020201ff_1_">
		<path fill="#9BC2C5" d="M55.922,157.262c2.248-2.142,5.445-2.863,8.461-2.953c3.188-0.029,6.379-0.012,9.568-0.012
			c0.013,3.365,0.013,6.73-0.002,10.096c-2.061-0.002-4.124,0.006-6.186-0.002c-1.308-0.082-2.648,0.908-2.888,2.203
			c-0.03,2.252-0.011,4.506-0.01,6.758c3.022,0.012,6.046-0.004,9.069,0.006c-0.222,3.259-0.625,6.5-1.101,9.73
			c-2.669,0.023-5.342-0.004-8.013,0.014c-0.023,9.605,0.013,19.213-0.018,28.818c-3.968,0.018-7.937-0.007-11.904,0.012
			c-0.075-9.606,0.006-19.221-0.042-28.828c-1.935-0.021-3.871,0.013-5.806-0.018c0.007-3.23,0.002-6.459,0.003-9.688
			c1.934-0.023,3.869,0.004,5.803-0.015c0.059-3.141-0.059-6.282,0.062-9.42C53.118,161.479,54.064,158.977,55.922,157.262z"/>
	</g>
</g>
<g id="Layer_4" display="none">
	<g display="inline">
		<path fill="#9B9B9B" d="M57.125,71.353c-0.561,2.188-1.185,4.295-1.633,6.439c-0.977,4.675-3.195,8.728-6.045,12.48
			c-0.249,0.327-0.645,0.795-0.944,0.776c-0.583-0.039-0.392-0.7-0.45-1.097c-0.713-4.887-0.423-9.698,0.847-14.493
			c1.274-4.809,2.323-9.678,3.448-14.526c0.069-0.299-0.01-0.666-0.116-0.968c-0.997-2.886-1.172-5.776-0.083-8.676
			c0.476-1.267,1.207-2.368,2.267-3.226c0.949-0.767,2.025-1.203,3.258-1.212c2.346-0.019,3.995,1.406,4.374,3.736
			c0.287,1.765-0.118,3.448-0.581,5.116c-0.665,2.397-1.373,4.783-2.091,7.165c-1.326,4.391,2.403,7.68,6.709,6.607
			c1.86-0.463,3.306-1.558,4.5-3.01c1.753-2.133,2.767-4.621,3.397-7.276c0.709-2.977,1.103-5.999,0.641-9.043
			c-0.816-5.377-4.001-8.706-9.24-9.914c-5.059-1.167-9.879-0.479-14.163,2.651c-5.43,3.969-6.97,10.868-5.792,15.49
			c0.33,1.29,0.921,2.452,1.802,3.447c0.527,0.597,0.678,1.214,0.438,1.98c-0.241,0.763-0.393,1.553-0.598,2.328
			c-0.272,1.027-0.872,1.319-1.858,0.886c-2.884-1.262-4.66-3.539-5.582-6.453c-2.004-6.338-0.851-12.197,3.066-17.489
			c3.569-4.824,8.5-7.482,14.345-8.493c4.198-0.726,8.389-0.675,12.447,0.751c6.682,2.346,11.148,6.823,12.881,13.799
			c0.705,2.837,0.492,5.709,0.072,8.562c-0.594,4.026-1.914,7.783-4.4,11.053c-3.214,4.225-7.461,6.542-12.807,6.568
			C61.968,75.325,59.183,74.136,57.125,71.353z"/>
	</g>
	<g display="inline">
		<path fill="#FFFFFF" d="M57.379,190c-0.561,2.188-1.185,4.295-1.633,6.439c-0.977,4.674-3.195,8.728-6.045,12.479
			c-0.249,0.326-0.645,0.795-0.944,0.774c-0.583-0.039-0.392-0.698-0.45-1.096c-0.713-4.889-0.423-9.699,0.847-14.494
			c1.274-4.809,2.323-9.678,3.448-14.525c0.069-0.301-0.01-0.665-0.116-0.969c-0.997-2.885-1.172-5.775-0.083-8.676
			c0.476-1.268,1.207-2.367,2.267-3.227c0.949-0.766,2.025-1.203,3.258-1.212c2.346-0.019,3.995,1.405,4.374,3.735
			c0.287,1.766-0.118,3.447-0.581,5.115c-0.666,2.397-1.374,4.782-2.092,7.165c-1.326,4.392,2.405,7.681,6.709,6.606
			c1.859-0.463,3.305-1.559,4.5-3.012c1.752-2.133,2.766-4.621,3.398-7.274c0.707-2.978,1.102-5.999,0.639-9.043
			c-0.816-5.378-4-8.706-9.24-9.914c-5.058-1.166-9.878-0.479-14.163,2.649c-5.43,3.97-6.97,10.869-5.792,15.49
			c0.33,1.291,0.921,2.452,1.802,3.447c0.527,0.598,0.678,1.214,0.438,1.98c-0.241,0.763-0.393,1.553-0.598,2.328
			c-0.272,1.026-0.872,1.317-1.858,0.885c-2.884-1.262-4.66-3.538-5.582-6.452c-2.004-6.339-0.851-12.196,3.066-17.489
			c3.569-4.822,8.5-7.48,14.345-8.492c4.198-0.727,8.389-0.675,12.447,0.752c6.682,2.346,11.148,6.822,12.881,13.799
			c0.705,2.836,0.492,5.709,0.072,8.562c-0.594,4.026-1.914,7.783-4.4,11.053c-3.215,4.226-7.461,6.541-12.807,6.568
			C62.221,193.973,59.436,192.783,57.379,190z"/>
	</g>
</g>
</svg>
