<?xml version="1.0" encoding="utf-8"?>
<!-- Generator: Adobe Illustrator 16.2.1, SVG Export Plug-In . SVG Version: 6.00 Build 0)  -->
<!DOCTYPE svg PUBLIC "-//W3C//DTD SVG 1.1//EN" "http://www.w3.org/Graphics/SVG/1.1/DTD/svg11.dtd">
<svg version="1.1" id="Layer_1" xmlns="http://www.w3.org/2000/svg" xmlns:xlink="http://www.w3.org/1999/xlink" x="0px" y="0px"
	 width="122px" height="244px" viewBox="0 0 122 244" enable-background="new 0 0 122 244" xml:space="preserve">
<g id="Layer_2">
</g>
<g id="Layer_1_1_">
	<g>
		<g>
			<path fill="#FFFFFF" d="M30.453,83.868c7.239,0.664,13.594-1.106,19.415-5.467c-3.77-0.228-6.844-1.566-9.332-4.173
				c-1.399-1.464-2.667-3.653-2.857-4.968c1.846,0.245,3.677,0.283,5.508-0.268c-2.968-0.812-5.47-2.33-7.384-4.742
				c-1.907-2.404-2.833-5.154-2.878-8.341c1.858,0.926,3.727,1.524,5.926,1.615c-3.496-2.585-5.45-5.882-5.77-10.06
				c-0.203-2.654,0.371-5.153,1.74-7.508c7.152,8.392,16.142,12.999,27.193,13.763c-0.396-1.943-0.472-3.76-0.07-5.572
				c1.107-4.996,4.066-8.429,8.926-9.988c4.835-1.552,9.227-0.48,13.002,2.918c0.52,0.468,0.938,0.569,1.582,0.404
				c2.438-0.621,4.768-1.507,6.959-2.742c0.083-0.046,0.172-0.078,0.422-0.194c-1.025,3.088-2.893,5.331-5.422,7.104
				c2.447-0.216,4.757-0.925,7.018-1.845c0.045,0.06,0.09,0.117,0.137,0.176c-0.989,1.165-1.928,2.379-2.983,3.48
				c-0.896,0.936-1.903,1.771-2.912,2.587c-0.421,0.339-0.573,0.659-0.571,1.2c0.027,11.545-4.109,21.338-12.568,29.2
				c-5.488,5.099-12.079,7.965-19.496,8.944c-8.801,1.162-17.051-0.431-24.709-4.96C31.083,84.291,30.854,84.13,30.453,83.868z"/>
		</g>
	</g>
	<g>
		<g>
			<path fill="#9BC2C5" d="M29.944,206.368c7.239,0.664,13.594-1.106,19.415-5.468c-3.77-0.228-6.844-1.565-9.332-4.172
				c-1.399-1.465-2.667-3.653-2.857-4.969c1.846,0.245,3.677,0.283,5.508-0.268c-2.968-0.812-5.47-2.33-7.384-4.742
				c-1.907-2.404-2.833-5.154-2.878-8.341c1.858,0.926,3.727,1.524,5.926,1.614c-3.496-2.584-5.45-5.881-5.77-10.06
				c-0.203-2.653,0.371-5.153,1.74-7.508c7.152,8.392,16.142,12.999,27.192,13.763c-0.396-1.943-0.471-3.76-0.07-5.572
				c1.108-4.996,4.067-8.429,8.925-9.987c4.836-1.552,9.228-0.479,13.002,2.918c0.52,0.468,0.938,0.569,1.582,0.403
				c2.438-0.621,4.768-1.506,6.959-2.742c0.084-0.045,0.173-0.077,0.423-0.193c-1.026,3.088-2.892,5.331-5.423,7.104
				c2.447-0.215,4.758-0.924,7.018-1.844c0.045,0.059,0.092,0.116,0.137,0.176c-0.988,1.164-1.927,2.379-2.982,3.479
				c-0.896,0.937-1.903,1.771-2.912,2.587c-0.421,0.339-0.574,0.659-0.572,1.2c0.028,11.545-4.109,21.338-12.568,29.2
				c-5.487,5.099-12.078,7.965-19.496,8.943c-8.801,1.162-17.051-0.431-24.709-4.959C30.575,206.791,30.346,206.63,29.944,206.368z"
				/>
		</g>
	</g>
</g>
</svg>
